<?xml version="1.0" encoding="utf-8"?>
<!-- Generator: Adobe Illustrator 16.0.0, SVG Export Plug-In . SVG Version: 6.00 Build 0)  -->
<!DOCTYPE svg PUBLIC "-//W3C//DTD SVG 1.1//EN" "http://www.w3.org/Graphics/SVG/1.1/DTD/svg11.dtd">
<svg version="1.1" id="Layer_1" xmlns="http://www.w3.org/2000/svg" xmlns:xlink="http://www.w3.org/1999/xlink" x="0px" y="0px"
	 width="200px" height="181px" viewBox="0 0 200 181" enable-background="new 0 0 200 181" xml:space="preserve">
<g>
	<linearGradient id="SVGID_1_" gradientUnits="userSpaceOnUse" x1="23.0571" y1="58.8149" x2="116.6035" y2="58.8149">
		<stop  offset="0" style="stop-color:#1C75BC"/>
		<stop  offset="1" style="stop-color:#27AAE1"/>
	</linearGradient>
	<path fill="url(#SVGID_1_)" d="M72.187,71.646c-12.449,8.573-25.816,4.442-25.816,4.442L72.187,71.646
		c6.074-4.182,11.929-11.387,15.907-23.571c12.135-37.159,18.96,6.016,20.476,14.762c0.107,0.619,0.301,1.458,0.568,2.452
		l7.165-1.233c0.192-1.722,0.301-3.469,0.301-5.242c0-25.832-20.941-46.773-46.773-46.773S23.057,32.983,23.057,58.815
		c0,25.832,20.941,46.773,46.773,46.773c19.572,0,36.328-12.027,43.304-29.089c-1.854-4.254-3.235-8.384-3.996-11.209L72.187,71.646
		z"/>
	<linearGradient id="SVGID_2_" gradientUnits="userSpaceOnUse" x1="113.1338" y1="76.1606" x2="149.3994" y2="76.1606">
		<stop  offset="0" style="stop-color:#1C75BC"/>
		<stop  offset="1" style="stop-color:#27AAE1"/>
	</linearGradient>
	<path fill="url(#SVGID_2_)" d="M116.303,64.057c-0.486,4.356-1.571,8.53-3.169,12.442c6.727,15.431,19.683,32.441,31.836-5.674
		c1.51-4.733,2.987-8.862,4.43-12.463L116.303,64.057z"/>
	<linearGradient id="SVGID_3_" gradientUnits="userSpaceOnUse" x1="149.3994" y1="47.7168" x2="178.3369" y2="47.7168">
		<stop  offset="0" style="stop-color:#1C75BC"/>
		<stop  offset="1" style="stop-color:#27AAE1"/>
	</linearGradient>
	<path fill="url(#SVGID_3_)" d="M149.399,58.362l28.938-4.979C174.889,40.278,163.91,22.163,149.399,58.362z"/>
</g>
<g>
	<path fill="#17193C" d="M21.688,137.147v-18.802h2.561v16.458h6.785l0.354,2.344H21.688z"/>
	<path fill="#17193C" d="M34.603,137.147v-18.802h2.56v18.802H34.603z"/>
	<path fill="#17193C" d="M44.411,120.69v5.748h5.667l0.381,2.344h-6.049v8.365H41.85v-18.802h9.782v2.345H44.411z"/>
	<path fill="#17193C" d="M54.873,137.147v-18.802h10.136v2.345h-7.574v5.449h5.886l0.381,2.343h-6.267v6.321h7.847v2.344H54.873z"/>
	<path fill="#17193C" d="M79.422,126.289c-0.327,0.719-0.791,1.317-1.39,1.798c-0.599,0.482-1.317,0.841-2.153,1.076
		c-0.834,0.236-1.761,0.354-2.778,0.354h-1.989v7.63h-2.561v-18.802h4.985c1.998,0,3.56,0.465,4.688,1.391
		c1.125,0.927,1.688,2.271,1.688,4.032C79.912,124.731,79.749,125.572,79.422,126.289z M76.352,121.411
		c-0.665-0.534-1.646-0.803-2.942-0.803h-2.298v6.647h2.134c1.296,0,2.304-0.271,3.024-0.817c0.722-0.545,1.081-1.406,1.081-2.588
		C77.351,122.76,77.018,121.947,76.352,121.411z"/>
	<path fill="#17193C" d="M83.155,137.147v-18.802h2.561v16.458H92.5l0.355,2.344H83.155z"/>
	<path fill="#17193C" d="M109.119,137.338l-2.207-5.832h-7.765l-2.125,5.642h-2.589l7.357-18.883h2.561l7.247,18.527
		L109.119,137.338z M103.017,121.316l-2.996,7.929h6.021L103.017,121.316z"/>
	<path fill="#17193C" d="M127.346,137.147l-10.325-14.632v14.632h-2.37v-18.802h2.287l9.975,14.087v-14.087h2.369v18.802H127.346z"
		/>
	<path fill="#17193C" d="M146.501,137.147l-10.326-14.632v14.632h-2.37v-18.802h2.288l9.972,14.087v-14.087h2.371v18.802H146.501z"
		/>
	<path fill="#17193C" d="M152.958,137.147v-18.802h10.135v2.345h-7.574v5.449h5.885l0.383,2.343h-6.268v6.321h7.848v2.344H152.958z"
		/>
	<path fill="#17193C" d="M179.467,136.765l-2.588,0.573l-5.748-8.119h-1.935v7.929h-2.562v-18.802h5.123
		c1.925,0,3.445,0.46,4.562,1.377s1.676,2.238,1.676,3.965c0,1.416-0.377,2.552-1.131,3.405s-1.747,1.454-2.983,1.798
		L179.467,136.765z M174.482,121.439c-0.637-0.554-1.58-0.831-2.835-0.831h-2.451v6.457h2.18c1.253,0,2.243-0.272,2.97-0.817
		s1.09-1.353,1.09-2.425C175.436,122.787,175.118,121.994,174.482,121.439z"/>
</g>
<g>
	<path fill="#17193C" d="M22.635,142.971v3.418h3.074l0.138,0.858h-3.212v4.417H21.68v-9.553h4.79v0.859H22.635z"/>
	<path fill="#17193C" d="M37.421,149.594c-0.167,0.466-0.406,0.863-0.72,1.191c-0.314,0.326-0.692,0.581-1.135,0.76
		c-0.443,0.181-0.946,0.271-1.509,0.271c-0.563,0-1.066-0.091-1.509-0.271c-0.443-0.179-0.816-0.431-1.121-0.753
		c-0.305-0.323-0.538-0.715-0.699-1.177c-0.162-0.462-0.242-0.969-0.242-1.522v-5.981h0.955v5.856c0,0.442,0.056,0.848,0.166,1.218
		c0.111,0.369,0.274,0.686,0.492,0.948c0.216,0.262,0.489,0.467,0.817,0.609c0.327,0.143,0.712,0.215,1.156,0.215
		c0.867,0,1.525-0.261,1.973-0.782c0.447-0.522,0.671-1.24,0.671-2.153v-5.911h0.955v5.911
		C37.67,148.604,37.587,149.128,37.421,149.594z"/>
	<path fill="#17193C" d="M48.898,151.664l-5.58-8.044l0.014,8.044h-0.914v-9.553h0.914l5.386,7.794v-7.794h0.914v9.553H48.898z"/>
	<path fill="#17193C" d="M61.751,148.867c-0.234,0.591-0.569,1.094-1.003,1.509c-0.434,0.416-0.96,0.734-1.578,0.956
		c-0.619,0.221-1.311,0.332-2.077,0.332h-2.562v-9.553h2.604c0.794,0,1.5,0.116,2.118,0.346c0.618,0.23,1.138,0.554,1.558,0.969
		c0.419,0.416,0.74,0.917,0.963,1.504c0.221,0.584,0.332,1.233,0.332,1.944C62.105,147.613,61.987,148.276,61.751,148.867z
		 M60.838,145.185c-0.189-0.489-0.459-0.898-0.81-1.226c-0.351-0.326-0.771-0.574-1.26-0.741c-0.489-0.166-1.03-0.247-1.62-0.247
		h-1.661v7.835h1.661c0.609,0,1.159-0.081,1.647-0.242c0.489-0.163,0.907-0.407,1.253-0.733c0.346-0.327,0.611-0.736,0.796-1.226
		c0.186-0.489,0.276-1.061,0.276-1.717C61.121,146.241,61.027,145.674,60.838,145.185z"/>
	<path fill="#17193C" d="M74.468,148.882c-0.212,0.607-0.507,1.132-0.887,1.57c-0.378,0.438-0.831,0.78-1.362,1.024
		s-1.121,0.367-1.767,0.367c-0.636,0-1.218-0.12-1.744-0.36c-0.524-0.24-0.978-0.579-1.356-1.017
		c-0.378-0.439-0.671-0.96-0.878-1.564c-0.209-0.605-0.312-1.271-0.312-2.001c0-0.729,0.105-1.401,0.319-2.015
		c0.211-0.614,0.507-1.138,0.885-1.571c0.379-0.434,0.833-0.773,1.364-1.017c0.529-0.245,1.114-0.368,1.751-0.368
		c0.646,0,1.232,0.12,1.759,0.36c0.525,0.24,0.978,0.579,1.357,1.017c0.377,0.439,0.671,0.961,0.879,1.565
		c0.207,0.604,0.311,1.271,0.311,2.001C74.786,147.603,74.68,148.272,74.468,148.882z M73.561,145.227
		c-0.161-0.509-0.388-0.941-0.677-1.302c-0.293-0.36-0.643-0.64-1.053-0.838c-0.411-0.198-0.865-0.298-1.364-0.298
		c-0.498,0-0.953,0.1-1.363,0.298c-0.412,0.198-0.762,0.478-1.053,0.838c-0.29,0.36-0.514,0.788-0.671,1.287
		s-0.235,1.054-0.235,1.662c0,0.61,0.08,1.167,0.242,1.674c0.16,0.509,0.387,0.941,0.679,1.302c0.291,0.36,0.641,0.64,1.052,0.838
		c0.409,0.198,0.864,0.297,1.363,0.297s0.953-0.099,1.363-0.297c0.412-0.198,0.762-0.478,1.053-0.838s0.514-0.789,0.672-1.287
		c0.157-0.499,0.234-1.053,0.234-1.661C73.803,146.292,73.723,145.733,73.561,145.227z"/>
	<path fill="#17193C" d="M91.959,148.867c-0.234,0.591-0.569,1.094-1.003,1.509c-0.435,0.416-0.96,0.734-1.578,0.956
		c-0.618,0.221-1.312,0.332-2.077,0.332h-2.562v-9.553h2.604c0.794,0,1.5,0.116,2.118,0.346c0.617,0.23,1.137,0.554,1.558,0.969
		c0.419,0.416,0.741,0.917,0.962,1.504c0.222,0.584,0.332,1.233,0.332,1.944C92.312,147.613,92.195,148.276,91.959,148.867z
		 M91.046,145.185c-0.189-0.489-0.459-0.898-0.81-1.226c-0.353-0.326-0.771-0.574-1.261-0.741c-0.488-0.166-1.028-0.247-1.618-0.247
		h-1.662v7.835h1.662c0.608,0,1.157-0.081,1.647-0.242c0.488-0.163,0.905-0.407,1.252-0.733c0.346-0.327,0.612-0.736,0.796-1.226
		c0.185-0.489,0.277-1.061,0.277-1.717C91.33,146.241,91.235,145.674,91.046,145.185z"/>
	<path fill="#17193C" d="M96.799,151.664v-9.553h4.983v0.859h-4.029v3.266h3.185l0.139,0.857h-3.323v3.712h4.167v0.858H96.799z"/>
	<path fill="#17193C" d="M116.858,146.036c-0.167,0.355-0.396,0.651-0.692,0.886s-0.648,0.412-1.06,0.533
		c-0.41,0.12-0.859,0.181-1.35,0.181h-1.189v4.028h-0.955v-9.553h2.367c0.969,0,1.73,0.23,2.29,0.692
		c0.559,0.461,0.838,1.125,0.838,1.994C117.107,145.267,117.024,145.681,116.858,146.036z M115.583,143.437
		c-0.381-0.312-0.937-0.466-1.668-0.466h-1.348v3.807h1.236c0.731,0,1.306-0.162,1.724-0.482c0.416-0.32,0.625-0.811,0.625-1.471
		C116.152,144.211,115.963,143.748,115.583,143.437z"/>
	<path fill="#17193C" d="M121.344,151.664v-9.553h4.983v0.859h-4.028v3.266h3.184l0.14,0.857h-3.323v3.712h4.168v0.858H121.344z"/>
	<path fill="#17193C" d="M137.153,151.664l-5.578-8.044l0.014,8.044h-0.915v-9.553h0.915l5.385,7.794v-7.794h0.913v9.553H137.153z"
		/>
	<path fill="#17193C" d="M147.626,150.247c-0.151,0.326-0.359,0.604-0.622,0.829c-0.264,0.226-0.577,0.399-0.941,0.519
		c-0.364,0.12-0.755,0.179-1.171,0.179c-0.534,0-1.014-0.057-1.439-0.173c-0.424-0.114-0.788-0.255-1.094-0.421l0.139-0.97
		c0.297,0.181,0.653,0.344,1.072,0.489c0.422,0.145,0.875,0.216,1.364,0.216c0.562,0,1.032-0.149,1.406-0.448
		c0.373-0.299,0.56-0.721,0.56-1.265c0-0.23-0.032-0.438-0.097-0.622c-0.064-0.184-0.17-0.354-0.317-0.512
		c-0.149-0.156-0.347-0.309-0.596-0.455c-0.249-0.149-0.554-0.301-0.914-0.457c-0.462-0.202-0.85-0.396-1.163-0.58
		c-0.312-0.185-0.57-0.383-0.768-0.595c-0.2-0.211-0.342-0.444-0.431-0.698c-0.087-0.253-0.132-0.551-0.132-0.892
		c0-0.359,0.069-0.686,0.209-0.981c0.138-0.294,0.33-0.545,0.575-0.753c0.243-0.207,0.532-0.368,0.864-0.483
		c0.332-0.116,0.695-0.174,1.095-0.174c0.45,0,0.853,0.047,1.203,0.139c0.35,0.093,0.651,0.213,0.899,0.359l-0.137,0.956
		c-0.268-0.181-0.568-0.325-0.901-0.433c-0.331-0.108-0.7-0.162-1.107-0.162c-0.562,0-0.994,0.145-1.294,0.434
		c-0.3,0.292-0.449,0.645-0.449,1.059c0,0.222,0.03,0.414,0.096,0.581c0.064,0.165,0.171,0.321,0.318,0.471
		c0.148,0.146,0.344,0.289,0.588,0.428c0.246,0.138,0.553,0.29,0.922,0.456c0.442,0.192,0.821,0.387,1.136,0.58
		c0.313,0.194,0.572,0.4,0.774,0.622c0.203,0.221,0.352,0.465,0.443,0.732s0.139,0.577,0.139,0.926
		C147.855,149.555,147.778,149.92,147.626,150.247z"/>
	<path fill="#17193C" d="M160.108,148.882c-0.213,0.607-0.509,1.132-0.887,1.57c-0.378,0.438-0.833,0.78-1.364,1.024
		c-0.53,0.244-1.119,0.367-1.765,0.367c-0.638,0-1.219-0.12-1.744-0.36c-0.526-0.24-0.979-0.579-1.356-1.017
		c-0.379-0.439-0.672-0.96-0.879-1.564c-0.209-0.605-0.312-1.271-0.312-2.001c0-0.729,0.105-1.401,0.318-2.015
		c0.212-0.614,0.508-1.138,0.886-1.571c0.379-0.434,0.833-0.773,1.364-1.017c0.529-0.245,1.113-0.368,1.751-0.368
		c0.646,0,1.231,0.12,1.759,0.36c0.525,0.24,0.979,0.579,1.356,1.017c0.378,0.439,0.67,0.961,0.88,1.565
		c0.207,0.604,0.31,1.271,0.31,2.001C160.425,147.603,160.319,148.272,160.108,148.882z M159.2,145.227
		c-0.161-0.509-0.388-0.941-0.678-1.302s-0.642-0.64-1.053-0.838c-0.41-0.198-0.865-0.298-1.363-0.298s-0.953,0.1-1.364,0.298
		c-0.41,0.198-0.761,0.478-1.051,0.838c-0.292,0.36-0.516,0.788-0.672,1.287c-0.157,0.499-0.236,1.054-0.236,1.662
		c0,0.61,0.081,1.167,0.243,1.674c0.16,0.509,0.387,0.941,0.679,1.302c0.29,0.36,0.641,0.64,1.052,0.838
		c0.41,0.198,0.865,0.297,1.363,0.297s0.953-0.099,1.364-0.297c0.41-0.198,0.761-0.478,1.052-0.838
		c0.292-0.36,0.513-0.789,0.671-1.287c0.157-0.499,0.236-1.053,0.236-1.661C159.443,146.292,159.362,145.733,159.2,145.227z
		 M157.754,140.698c-0.186,0.241-0.412,0.36-0.679,0.36c-0.184,0-0.349-0.027-0.491-0.083c-0.144-0.056-0.325-0.143-0.547-0.263
		c-0.24-0.13-0.418-0.221-0.533-0.276c-0.116-0.056-0.228-0.084-0.339-0.084c-0.109,0-0.207,0.057-0.291,0.167
		c-0.081,0.11-0.151,0.3-0.208,0.566l-0.623-0.124c0.141-0.96,0.494-1.439,1.067-1.439c0.184,0,0.348,0.03,0.491,0.09
		c0.142,0.061,0.325,0.15,0.547,0.271c0.239,0.129,0.418,0.218,0.533,0.27c0.115,0.05,0.229,0.075,0.338,0.075
		c0.111,0,0.207-0.055,0.284-0.166c0.079-0.11,0.15-0.295,0.215-0.553l0.609,0.125C158.062,140.104,157.938,140.459,157.754,140.698
		z"/>
	<path fill="#17193C" d="M164.897,151.664v-9.553h4.983v0.859h-4.027v3.266h3.184l0.138,0.857h-3.321v3.712h4.166v0.858H164.897z"/>
	<path fill="#17193C" d="M179.066,150.247c-0.151,0.326-0.36,0.604-0.623,0.829c-0.262,0.226-0.577,0.399-0.941,0.519
		c-0.365,0.12-0.755,0.179-1.169,0.179c-0.535,0-1.015-0.057-1.44-0.173c-0.424-0.114-0.789-0.255-1.094-0.421l0.139-0.97
		c0.295,0.181,0.652,0.344,1.073,0.489c0.421,0.145,0.874,0.216,1.363,0.216c0.563,0,1.032-0.149,1.405-0.448
		c0.374-0.299,0.56-0.721,0.56-1.265c0-0.23-0.031-0.438-0.096-0.622c-0.064-0.184-0.171-0.354-0.318-0.512
		c-0.148-0.156-0.347-0.309-0.595-0.455c-0.25-0.149-0.555-0.301-0.914-0.457c-0.462-0.202-0.849-0.396-1.163-0.58
		c-0.313-0.185-0.571-0.383-0.77-0.595c-0.198-0.211-0.341-0.444-0.429-0.698c-0.088-0.253-0.132-0.551-0.132-0.892
		c0-0.359,0.069-0.686,0.209-0.981c0.139-0.294,0.329-0.545,0.574-0.753c0.245-0.207,0.532-0.368,0.866-0.483
		c0.331-0.116,0.695-0.174,1.094-0.174c0.45,0,0.853,0.047,1.203,0.139c0.351,0.093,0.65,0.213,0.899,0.359l-0.138,0.956
		c-0.268-0.181-0.568-0.325-0.901-0.433c-0.33-0.108-0.7-0.162-1.107-0.162c-0.562,0-0.993,0.145-1.293,0.434
		c-0.3,0.292-0.45,0.645-0.45,1.059c0,0.222,0.032,0.414,0.098,0.581c0.063,0.165,0.169,0.321,0.318,0.471
		c0.146,0.146,0.343,0.289,0.587,0.428c0.245,0.138,0.552,0.29,0.922,0.456c0.442,0.192,0.821,0.387,1.136,0.58
		c0.312,0.194,0.57,0.4,0.775,0.622c0.202,0.221,0.35,0.465,0.442,0.732c0.092,0.268,0.138,0.577,0.138,0.926
		C179.295,149.555,179.219,149.92,179.066,150.247z"/>
</g>
</svg>
